<svg width="700" height="250" viewBox="0 0 700 250" fill="none" xmlns="http://www.w3.org/2000/svg">
<rect width="700" height="250" fill="white"/>
<path d="M126.583 188.943C118.956 188.943 112.246 187.329 106.453 184.103C100.733 180.803 96.2964 176.183 93.143 170.243C89.9897 164.229 88.413 157.299 88.413 149.453C88.413 141.533 89.9897 134.566 93.143 128.553C96.2964 122.539 100.733 117.919 106.453 114.693C112.246 111.393 118.92 109.743 126.473 109.743C132.78 109.743 138.573 110.806 143.853 112.933C149.206 115.059 153.386 118.029 156.393 121.843C156.98 122.503 157.273 123.309 157.273 124.263C157.273 125.436 156.76 126.389 155.733 127.123C155.073 127.563 154.34 127.783 153.533 127.783C152.14 127.783 150.966 127.233 150.013 126.133C147.666 123.126 144.476 120.816 140.443 119.203C136.41 117.589 131.753 116.783 126.473 116.783C120.386 116.783 115.106 118.103 110.633 120.743C106.16 123.383 102.713 127.159 100.293 132.073C97.9464 136.986 96.773 142.779 96.773 149.453C96.773 156.053 97.9464 161.809 100.293 166.723C102.713 171.563 106.16 175.303 110.633 177.943C115.18 180.583 120.496 181.903 126.583 181.903C132.23 181.903 137.143 181.096 141.323 179.483C145.576 177.796 148.913 175.486 151.333 172.553C152.433 171.379 153.606 170.793 154.853 170.793C155.733 170.793 156.466 171.049 157.053 171.563C158.08 172.443 158.593 173.396 158.593 174.423C158.593 175.303 158.263 176.146 157.603 176.953C154.596 180.619 150.306 183.553 144.733 185.753C139.233 187.879 133.183 188.943 126.583 188.943Z" fill="black"/>
<path d="M180.193 188.943C173.006 188.943 167.36 187.366 163.253 184.213C159.22 181.059 157.203 176.696 157.203 171.123C157.203 165.623 159.33 161.259 163.583 158.033C167.91 154.806 173.776 153.193 181.183 153.193C185.51 153.193 189.323 153.779 192.623 154.953C195.996 156.126 198.6 157.703 200.433 159.683V152.643C200.433 148.463 199.04 145.273 196.253 143.073C193.54 140.873 189.543 139.773 184.263 139.773C177.443 139.773 171.54 141.386 166.553 144.613C165.306 145.346 164.28 145.713 163.473 145.713C162.74 145.713 162.006 145.419 161.273 144.833C160.466 144.173 160.063 143.329 160.063 142.303C160.063 141.203 160.54 140.286 161.493 139.553C164.133 137.499 167.47 135.886 171.503 134.713C175.61 133.466 179.79 132.843 184.043 132.843C191.816 132.843 197.83 134.603 202.083 138.123C206.41 141.643 208.573 146.593 208.573 152.973V184.653C208.573 187.513 207.253 188.943 204.613 188.943C203.44 188.943 202.486 188.576 201.753 187.843C201.02 187.036 200.653 186.009 200.653 184.763V180.803C196.106 186.229 189.286 188.943 180.193 188.943ZM181.183 182.233C186.903 182.233 191.56 181.169 195.153 179.043C198.746 176.843 200.543 174.019 200.543 170.573C200.543 167.126 198.856 164.486 195.483 162.653C192.183 160.746 187.49 159.793 181.403 159.793C176.27 159.793 172.31 160.783 169.523 162.763C166.736 164.669 165.343 167.456 165.343 171.123C165.343 174.716 166.7 177.466 169.413 179.373C172.126 181.279 176.05 182.233 181.183 182.233Z" fill="black"/>
<path d="M212.133 188.943C210.886 188.943 209.896 188.576 209.163 187.843C208.503 187.036 208.173 185.936 208.173 184.543V137.243C208.173 135.849 208.503 134.786 209.163 134.053C209.823 133.246 210.813 132.843 212.133 132.843C213.38 132.843 214.333 133.246 214.993 134.053C215.726 134.786 216.093 135.849 216.093 137.243V143.843C221.08 137.243 227.973 133.943 236.773 133.943H239.523C240.916 133.943 242.016 134.273 242.823 134.933C243.63 135.519 244.033 136.363 244.033 137.463C244.033 138.563 243.63 139.406 242.823 139.993C242.016 140.579 240.916 140.873 239.523 140.873H236.443C230.21 140.873 225.26 142.669 221.593 146.263C218 149.783 216.203 154.586 216.203 160.673V184.543C216.203 185.863 215.836 186.926 215.103 187.733C214.443 188.539 213.453 188.943 212.133 188.943Z" fill="black"/>
<path d="M259.013 188.943C249.48 188.943 242.11 186.486 236.903 181.573C231.696 176.659 229.093 169.693 229.093 160.673C229.093 152.019 231.733 145.236 237.013 140.323C242.293 135.336 249.516 132.843 258.683 132.843C264.33 132.843 269.353 133.759 273.753 135.593C278.153 137.353 281.563 139.883 283.983 143.183C286.476 146.409 287.723 150.113 287.723 154.293C287.723 157.373 286.843 159.756 285.083 161.443C283.396 163.129 281.05 163.973 278.043 163.973H237.343C237.343 169.619 239.25 174.056 243.063 177.283C246.876 180.436 252.193 182.013 259.013 182.013C263.193 182.013 266.786 181.573 269.793 180.693C272.8 179.739 275.623 178.236 278.263 176.183C279.656 175.009 280.793 174.423 281.673 174.423C282.333 174.423 282.956 174.716 283.543 175.303C284.57 176.183 285.083 177.099 285.083 178.053C285.083 178.786 284.643 179.593 283.763 180.473C280.756 183.333 277.236 185.459 273.203 186.853C269.17 188.246 264.44 188.943 259.013 188.943ZM275.623 157.483C276.943 157.483 277.933 157.226 278.593 156.713C279.253 156.126 279.583 155.099 279.583 153.633C279.583 150.993 278.703 148.609 276.943 146.483C275.183 144.356 272.69 142.706 269.463 141.533C266.31 140.359 262.716 139.773 258.683 139.773C252.156 139.773 246.986 141.386 243.173 144.613C239.433 147.766 237.563 152.056 237.563 157.483H275.623Z" fill="black"/>
<path d="M319.583 188.943C311.956 188.943 305.246 187.329 299.453 184.103C293.733 180.803 289.296 176.183 286.143 170.243C282.99 164.229 281.413 157.299 281.413 149.453C281.413 141.533 282.99 134.566 286.143 128.553C289.296 122.539 293.733 117.919 299.453 114.693C305.246 111.393 311.92 109.743 319.473 109.743C325.78 109.743 331.573 110.806 336.853 112.933C342.206 115.059 346.386 118.029 349.393 121.843C349.98 122.503 350.273 123.309 350.273 124.263C350.273 125.436 349.76 126.389 348.733 127.123C348.073 127.563 347.34 127.783 346.533 127.783C345.14 127.783 343.966 127.233 343.013 126.133C340.666 123.126 337.476 120.816 333.443 119.203C329.41 117.589 324.753 116.783 319.473 116.783C313.386 116.783 308.106 118.103 303.633 120.743C299.16 123.383 295.713 127.159 293.293 132.073C290.946 136.986 289.773 142.779 289.773 149.453C289.773 156.053 290.946 161.809 293.293 166.723C295.713 171.563 299.16 175.303 303.633 177.943C308.18 180.583 313.496 181.903 319.583 181.903C325.23 181.903 330.143 181.096 334.323 179.483C338.576 177.796 341.913 175.486 344.333 172.553C345.433 171.379 346.606 170.793 347.853 170.793C348.733 170.793 349.466 171.049 350.053 171.563C351.08 172.443 351.593 173.396 351.593 174.423C351.593 175.303 351.263 176.146 350.603 176.953C347.596 180.619 343.306 183.553 337.733 185.753C332.233 187.879 326.183 188.943 319.583 188.943Z" fill="black"/>
<path d="M376.453 188.943C370.073 188.943 364.61 187.659 360.063 185.093C355.516 182.526 352.07 179.116 349.723 174.863C347.45 170.536 346.313 165.879 346.313 160.893C346.313 155.906 347.45 151.286 349.723 147.033C352.07 142.706 355.516 139.259 360.063 136.693C364.61 134.126 370.073 132.843 376.453 132.843C382.833 132.843 388.26 134.126 392.733 136.693C397.28 139.259 400.69 142.706 402.963 147.033C405.31 151.286 406.483 155.906 406.483 160.893C406.483 165.879 405.31 170.536 402.963 174.863C400.69 179.116 397.28 182.526 392.733 185.093C388.26 187.659 382.833 188.943 376.453 188.943ZM376.453 182.013C383.053 182.013 388.333 180.143 392.293 176.403C396.326 172.663 398.343 167.493 398.343 160.893C398.343 154.293 396.326 149.123 392.293 145.383C388.333 141.643 383.053 139.773 376.453 139.773C369.78 139.773 364.426 141.643 360.393 145.383C356.433 149.123 354.453 154.293 354.453 160.893C354.453 167.493 356.433 172.663 360.393 176.403C364.426 180.143 369.78 182.013 376.453 182.013Z" fill="black"/>
<path d="M409.133 188.943C407.886 188.943 406.896 188.576 406.163 187.843C405.503 187.036 405.173 185.936 405.173 184.543V137.243C405.173 135.849 405.503 134.786 406.163 134.053C406.823 133.246 407.813 132.843 409.133 132.843C410.38 132.843 411.333 133.246 411.993 134.053C412.726 134.786 413.093 135.849 413.093 137.243V143.733C415.806 140.139 419.07 137.426 422.883 135.593C426.77 133.759 431.023 132.843 435.643 132.843C442.61 132.843 447.963 134.786 451.703 138.673C455.516 142.559 457.423 148.133 457.423 155.393V184.543C457.423 185.936 457.056 187.036 456.323 187.843C455.59 188.576 454.6 188.943 453.353 188.943C452.033 188.943 451.043 188.576 450.383 187.843C449.723 187.036 449.393 185.936 449.393 184.543V155.393C449.393 144.979 444.48 139.773 434.653 139.773C428.2 139.773 422.993 141.679 419.033 145.493C415.146 149.306 413.203 154.366 413.203 160.673V184.543C413.203 185.863 412.836 186.926 412.103 187.733C411.443 188.539 410.453 188.943 409.133 188.943Z" fill="black"/>
<path d="M461.133 188.943C459.886 188.943 458.896 188.576 458.163 187.843C457.503 187.036 457.173 185.936 457.173 184.543V137.243C457.173 135.849 457.503 134.786 458.163 134.053C458.823 133.246 459.813 132.843 461.133 132.843C462.38 132.843 463.333 133.246 463.993 134.053C464.726 134.786 465.093 135.849 465.093 137.243V143.733C467.806 140.139 471.07 137.426 474.883 135.593C478.77 133.759 483.023 132.843 487.643 132.843C494.61 132.843 499.963 134.786 503.703 138.673C507.516 142.559 509.423 148.133 509.423 155.393V184.543C509.423 185.936 509.056 187.036 508.323 187.843C507.59 188.576 506.6 188.943 505.353 188.943C504.033 188.943 503.043 188.576 502.383 187.843C501.723 187.036 501.393 185.936 501.393 184.543V155.393C501.393 144.979 496.48 139.773 486.653 139.773C480.2 139.773 474.993 141.679 471.033 145.493C467.146 149.306 465.203 154.366 465.203 160.673V184.543C465.203 185.863 464.836 186.926 464.103 187.733C463.443 188.539 462.453 188.943 461.133 188.943Z" fill="black"/>
<path d="M539.013 188.943C529.48 188.943 522.11 186.486 516.903 181.573C511.696 176.659 509.093 169.693 509.093 160.673C509.093 152.019 511.733 145.236 517.013 140.323C522.293 135.336 529.516 132.843 538.683 132.843C544.33 132.843 549.353 133.759 553.753 135.593C558.153 137.353 561.563 139.883 563.983 143.183C566.476 146.409 567.723 150.113 567.723 154.293C567.723 157.373 566.843 159.756 565.083 161.443C563.396 163.129 561.05 163.973 558.043 163.973H517.343C517.343 169.619 519.25 174.056 523.063 177.283C526.876 180.436 532.193 182.013 539.013 182.013C543.193 182.013 546.786 181.573 549.793 180.693C552.8 179.739 555.623 178.236 558.263 176.183C559.656 175.009 560.793 174.423 561.673 174.423C562.333 174.423 562.956 174.716 563.543 175.303C564.57 176.183 565.083 177.099 565.083 178.053C565.083 178.786 564.643 179.593 563.763 180.473C560.756 183.333 557.236 185.459 553.203 186.853C549.17 188.246 544.44 188.943 539.013 188.943ZM555.623 157.483C556.943 157.483 557.933 157.226 558.593 156.713C559.253 156.126 559.583 155.099 559.583 153.633C559.583 150.993 558.703 148.609 556.943 146.483C555.183 144.356 552.69 142.706 549.463 141.533C546.31 140.359 542.716 139.773 538.683 139.773C532.156 139.773 526.986 141.386 523.173 144.613C519.433 147.766 517.563 152.056 517.563 157.483H555.623Z" fill="black"/>
<path d="M590.793 188.943C584.926 188.943 579.756 187.806 575.283 185.533C570.81 183.186 567.363 179.886 564.943 175.633C562.523 171.379 561.313 166.429 561.313 160.783C561.313 155.209 562.523 150.333 564.943 146.153C567.363 141.899 570.81 138.636 575.283 136.363C579.756 134.016 584.926 132.843 590.793 132.843C596.293 132.843 601.06 133.613 605.093 135.153C609.126 136.693 612.316 138.966 614.663 141.973C615.25 142.779 615.543 143.549 615.543 144.283C615.543 145.383 614.993 146.373 613.893 147.253C613.38 147.693 612.72 147.913 611.913 147.913C610.666 147.913 609.493 147.363 608.393 146.263C604.506 141.936 598.64 139.773 590.793 139.773C583.973 139.773 578.693 141.606 574.953 145.273C571.286 148.866 569.453 154.036 569.453 160.783C569.453 167.456 571.323 172.663 575.063 176.403C578.803 180.143 584.046 182.013 590.793 182.013C594.533 182.013 597.98 181.463 601.133 180.363C604.286 179.189 606.89 177.539 608.943 175.413C610.19 174.166 611.363 173.543 612.463 173.543C613.123 173.543 613.856 173.836 614.663 174.423C615.69 175.303 616.203 176.256 616.203 177.283C616.203 178.236 615.8 179.043 614.993 179.703C611.4 182.929 607.66 185.276 603.773 186.743C599.886 188.209 595.56 188.943 590.793 188.943Z" fill="black"/>
<path d="M648.843 173.963C649.723 174.683 650.163 175.523 650.163 176.483C650.163 177.283 649.803 178.243 649.083 179.363C647.403 181.683 645.083 183.563 642.123 185.003C639.163 186.363 636.123 187.043 633.003 187.043C627.723 187.043 623.563 185.483 620.523 182.363C617.483 179.243 615.963 174.963 615.963 169.523V134.363H609.483C606.283 134.363 604.683 133.123 604.683 130.643C604.683 129.523 605.083 128.643 605.883 128.003C606.763 127.363 607.963 127.043 609.483 127.043H615.963V106.523C615.963 105.003 616.323 103.843 617.043 103.043C617.843 102.163 618.963 101.723 620.403 101.723C621.763 101.723 622.803 102.163 623.523 103.043C624.323 103.843 624.723 105.003 624.723 106.523V127.043H641.043C642.483 127.043 643.603 127.363 644.403 128.003C645.283 128.563 645.723 129.443 645.723 130.643C645.723 133.123 644.163 134.363 641.043 134.363H624.723V170.243C624.723 176.403 627.603 179.483 633.363 179.483C635.203 179.483 636.883 179.123 638.403 178.403C639.923 177.683 641.443 176.523 642.963 174.923C644.163 173.643 645.323 173.003 646.443 173.003C647.163 173.003 647.963 173.323 648.843 173.963Z" fill="black"/>
<path d="M685.363 185.343C685.363 197.769 675.289 207.843 662.863 207.843C650.437 207.843 640.363 197.769 640.363 185.343C640.363 172.916 650.437 162.843 662.863 162.843C675.289 162.843 685.363 172.916 685.363 185.343Z" fill="black"/>
<path d="M241.529 116.941C250.907 125.985 267.886 125.914 274.212 127.299L276.856 127.69L278.959 125.739C294.256 108.266 295.483 93.2155 290.265 88.4739C287.39 83.9065 272.747 78.3263 261.671 94.7255C245.424 91.4998 238.788 100.255 237.557 104.859C236.748 106.805 236.41 111.946 241.529 116.941Z" fill="#FF0000" stroke="#FF0000" stroke-width="5"/>
<circle cx="662.363" cy="185.843" r="14" fill="#CBC8C8"/>
<path d="M37.5611 57.3835C39.7597 60.4168 34.6946 62.8677 31.8872 63.7139C24.4876 70.9813 28.0256 78.4738 30.7195 81.3117L60.8704 101.988L61.7009 101.559L84.2331 116.655C94.6993 121.637 100.941 116.406 104.448 113.009C113.766 102.53 105.941 86.0279 99.3045 75.5592L99.7198 75.3446L80.9167 42.0071C77.4431 36.9134 70.6679 37.7856 67.7144 38.8583L62.108 41.755C58.2151 46.8481 55.056 45.9273 53.963 44.8304C53.9057 41.0532 58.8763 40.2525 61.3687 40.3243L66.9752 37.4275C75.6507 33.8515 81.1302 38.3469 82.7856 41.0415L87.3591 48.8752L101.173 74.5936L101.866 74.9156L110.091 92.8719C113.304 101.635 112.914 106.782 105.464 114.976C98.0833 123.095 87.4894 121.091 83.3112 118.944L60.5485 104.421L59.6712 103.741L59.4168 102.739L49.6282 96.014L32.1056 83.9944C29.9741 82.7543 25.6643 79.1651 25.4773 74.7299C25.2904 70.2946 28.9646 64.8463 30.8251 62.6765C33.0603 56.31 37.7687 57.2762 37.5611 57.3835Z" fill="black"/>
<path d="M98.8892 75.7738L99.3045 75.5592M99.3045 75.5592L99.7198 75.3446L80.9167 42.0071C77.4431 36.9134 70.6679 37.7856 67.7144 38.8583L62.108 41.755C58.2151 46.8481 55.056 45.9273 53.963 44.8304C53.9057 41.0532 58.8763 40.2525 61.3687 40.3243L66.9752 37.4275C75.6507 33.8515 81.1302 38.3469 82.7856 41.0415L87.3591 48.8752L101.173 74.5936L101.866 74.9156L110.091 92.8719C113.304 101.635 112.914 106.782 105.464 114.976C98.0833 123.095 87.4894 121.091 83.3112 118.944L60.5485 104.421L59.6712 103.741L59.4168 102.739L49.6282 96.014L32.1056 83.9944C29.9741 82.7543 25.6643 79.1651 25.4773 74.7299C25.2904 70.2946 28.9646 64.8463 30.8251 62.6765C33.0603 56.31 37.7687 57.2762 37.5611 57.3835C39.7597 60.4168 34.6946 62.8677 31.8872 63.7139C24.4876 70.9813 28.0256 78.4738 30.7195 81.3117L60.8704 101.988L61.7009 101.559L84.2331 116.655C94.6993 121.637 100.941 116.406 104.448 113.009C113.766 102.53 105.941 86.0279 99.3045 75.5592Z" stroke="black" stroke-width="5"/>
<path d="M31.7391 67.7202L26.5432 64.6785C19.4794 74.2463 24.5428 81.9033 27.9086 84.2906L56.8284 104.011L60.9487 99.1097C51.374 92.8631 50.2631 91.5553 33.2053 80.1741C28.2061 75.5635 30.2349 69.5501 31.7391 67.7202Z" fill="#D9D9D9" stroke="#BFBFBF" stroke-width="0.1"/>
<path d="M64.5977 43.3158L62.3446 37.1373C74.9972 29.0033 82.8063 36.622 84.7989 39.7933L88.6208 46.1685L93.4224 54.8975L100.863 68.8425L94.863 71.8425C89.3428 62.0673 80.0312 45.5377 78.228 42.6345C76.4248 39.7313 71.136 40.3112 68.717 40.964L64.5977 43.3158Z" fill="#D9D9D9" stroke="#BFBFBF" stroke-width="0.1"/>
</svg>
